<svg width="160" height="160" viewBox="0 0 160 160" fill="none" xmlns="http://www.w3.org/2000/svg">
<g clip-path="url(#clip0_797_5026)">
<g clip-path="url(#clip1_797_5026)">
<path d="M52.318 79.6502C52.2714 79.7037 52.1596 79.8194 51.9918 80.0064C51.5538 80.4693 50.7337 81.3151 49.7644 82.3212C49.4196 82.6773 49.0561 83.0424 48.6926 83.4252C46.866 85.3038 44.8156 87.4139 43.7345 88.5446C43.7904 88.4556 44.9181 86.8441 45.1884 85.3305C45.2536 84.9744 44.9647 84.645 44.5826 84.645C44.1632 84.645 43.5668 84.6806 42.8678 84.7874C40.3049 85.2059 36.3346 86.7461 34.3682 92.1504C33.8556 93.5393 33.4828 95.1775 33.2964 97.1184C33.0821 95.7562 32.9795 94.5098 32.9609 93.3613C32.8304 83.5321 39.4102 81.3508 42.1315 80.87C42.6162 80.781 42.8026 80.2111 42.4484 79.8728C42.2806 79.7215 42.1129 79.5612 41.9451 79.4188C41.5071 79.0359 41.8147 78.3504 42.4018 78.3949C44.0141 78.5195 46.1949 78.7866 48.0962 79.0448C50.2397 79.3386 52.0477 79.6057 52.318 79.6502Z" fill="white"/>
</g>
<g clip-path="url(#clip2_797_5026)">
<path d="M52.3181 54.1249C52.2715 54.0715 52.1597 53.9558 51.9919 53.7688C51.5539 53.3058 50.7337 52.46 49.7645 51.454C49.4196 51.0978 49.0562 50.7328 48.6927 50.3499C46.866 48.4714 44.8157 46.3613 43.7346 45.2306C43.7905 45.3196 44.8623 46.8599 45.1698 48.3467C45.2537 48.7563 44.8996 49.1391 44.4615 49.1302C44.0515 49.1213 43.5016 49.0857 42.8679 48.9877C40.3049 48.5693 36.3347 47.029 34.3683 41.6248C33.8557 40.2358 33.4829 38.5976 33.2965 36.6567C33.0821 38.0189 32.9796 39.2654 32.961 40.4139C32.8305 50.065 39.1772 52.3443 41.9732 52.8785C42.5324 52.9853 42.7187 53.6531 42.3087 54.027C42.2528 54.0804 42.1875 54.1338 42.1316 54.1872C41.647 54.6235 42.0104 55.407 42.6721 55.3447C44.2565 55.2111 46.2975 54.9618 48.1056 54.7214C50.2398 54.4454 52.0478 54.1694 52.3181 54.1249Z" fill="white"/>
</g>
<g clip-path="url(#clip3_797_5026)">
<path d="M108.518 79.6502C108.564 79.7037 108.676 79.8194 108.844 80.0064C109.282 80.4693 110.102 81.3151 111.071 82.3212C111.416 82.6773 111.779 83.0424 112.143 83.4252C113.97 85.3038 116.02 87.4139 117.101 88.5446C117.045 88.4645 115.992 86.942 115.675 85.4819C115.582 85.0456 115.955 84.6361 116.421 84.6539C116.821 84.6628 117.353 84.6984 117.968 84.7963C120.531 85.2148 124.501 86.755 126.467 92.1593C126.98 93.5482 127.353 95.1864 127.539 97.1273C127.754 95.7651 127.856 94.5187 127.875 93.3702C128.005 83.7992 121.77 81.4843 118.937 80.9234C118.35 80.8077 118.154 80.1043 118.583 79.7037C118.592 79.6948 118.611 79.6859 118.62 79.6681C119.133 79.1962 118.751 78.3771 118.042 78.4394C116.477 78.5729 114.492 78.8222 112.739 79.0537C110.596 79.3386 108.797 79.6057 108.518 79.6502Z" fill="white"/>
</g>
<g clip-path="url(#clip4_797_5026)">
<path d="M108.518 54.1246C108.564 54.0711 108.676 53.9554 108.844 53.7684C109.282 53.3055 110.102 52.4596 111.071 51.4536C111.416 51.0974 111.779 50.7324 112.143 50.3496C113.97 48.471 116.02 46.3609 117.101 45.2302C117.045 45.3103 115.992 46.8328 115.675 48.2929C115.582 48.7292 115.955 49.1387 116.421 49.1209C116.821 49.112 117.353 49.0764 117.968 48.9785C120.531 48.56 124.501 47.0198 126.467 41.6155C126.98 40.2266 127.353 38.5884 127.539 36.6475C127.754 38.0097 127.856 39.2561 127.875 40.4046C128.005 49.9756 121.77 52.2905 118.937 52.8514C118.35 52.9671 118.154 53.6705 118.583 54.0711C118.592 54.08 118.611 54.0889 118.62 54.1067C119.133 54.5786 118.751 55.3977 118.042 55.3354C116.477 55.2018 114.492 54.9526 112.739 54.7211C110.596 54.4451 108.797 54.1691 108.518 54.1246Z" fill="white"/>
</g>
<g clip-path="url(#clip5_797_5026)">
<mask id="path-5-inside-1_797_5026" fill="white">
<path d="M68.5395 55.4808L61.3446 59.5638C53.8981 63.7933 53.8981 74.367 61.3446 78.5964L75.026 86.3596"/>
</mask>
<path d="M61.3446 59.5638L60.5871 58.23L60.5876 58.2297L61.3446 59.5638ZM61.3446 78.5964L60.5876 79.9305L60.5871 79.9302L61.3446 78.5964ZM68.5395 55.4808L69.2965 56.8148L62.1017 60.8979L61.3446 59.5638L60.5876 58.2297L67.7824 54.1467L68.5395 55.4808ZM61.3446 59.5638L62.1022 60.8976C55.6908 64.5391 55.6908 73.6211 62.1022 77.2627L61.3446 78.5964L60.5871 79.9302C52.1055 75.1128 52.1055 63.0474 60.5871 58.23L61.3446 59.5638ZM61.3446 78.5964L62.1016 77.2623L75.783 85.0255L75.026 86.3596L74.269 87.6937L60.5876 79.9305L61.3446 78.5964Z" fill="white" mask="url(#path-5-inside-1_797_5026)"/>
</g>
<g clip-path="url(#clip6_797_5026)">
<mask id="path-7-inside-2_797_5026" fill="white">
<path d="M86.6006 44.5005L127.24 22.0837C134.889 17.8634 144.461 23.1433 144.461 31.593V105.658C144.461 114.089 134.899 119.369 127.24 115.149L79.9358 89.0509L67.4668 82.1724"/>
</mask>
<path d="M127.24 22.0837L127.981 23.4268L127.981 23.4267L127.24 22.0837ZM127.24 115.149L126.499 116.492L126.499 116.493L127.24 115.149ZM79.9358 89.0509L80.6768 87.7079L80.6767 87.7078L79.9358 89.0509ZM86.6006 44.5005L87.3415 45.8436L127.981 23.4268L127.24 22.0837L126.499 20.7405L85.8598 43.1574L86.6006 44.5005ZM127.24 22.0837L127.981 23.4267C134.711 19.7137 142.927 24.4264 142.927 31.593H144.461H145.995C145.995 21.8602 135.068 16.0131 126.499 20.7406L127.24 22.0837ZM144.461 31.593H142.927V105.658H144.461H145.995V31.593H144.461ZM144.461 105.658H142.927C142.927 112.804 134.722 117.521 127.98 113.806L127.24 115.149L126.499 116.493C135.076 121.218 145.995 115.375 145.995 105.658H144.461ZM127.24 115.149L127.981 113.806L80.6768 87.7079L79.9358 89.0509L79.1949 90.394L126.499 116.492L127.24 115.149ZM79.9358 89.0509L80.6767 87.7078L68.2077 80.8293L67.4668 82.1724L66.7259 83.5155L79.1949 90.394L79.9358 89.0509Z" fill="white" mask="url(#path-7-inside-2_797_5026)"/>
</g>
<path d="M73.3059 91.2339L33.697 113.082C26.2412 117.196 16.9121 112.05 16.9121 103.814V31.6266C16.9121 23.4089 26.2319 18.2628 33.697 22.3761L79.8018 47.8127L99.1496 58.4788C106.596 62.5921 106.596 72.8754 99.1496 76.9887L85.4682 84.5386" stroke="white" stroke-width="1.5339" stroke-miterlimit="10"/>
<g clip-path="url(#clip7_797_5026)">
<path d="M132.085 33.3619C132.929 33.3619 133.614 32.7082 133.614 31.9018C133.614 31.0954 132.929 30.4417 132.085 30.4417C131.241 30.4417 130.557 31.0954 130.557 31.9018C130.557 32.7082 131.241 33.3619 132.085 33.3619Z" stroke="white" stroke-width="0.0854839" stroke-miterlimit="10"/>
<path d="M132.086 32.5701C132.472 32.5701 132.785 32.2711 132.785 31.9024C132.785 31.5336 132.472 31.2346 132.086 31.2346C131.7 31.2346 131.387 31.5336 131.387 31.9024C131.387 32.2711 131.7 32.5701 132.086 32.5701Z" stroke="white" stroke-width="0.0368218" stroke-miterlimit="10"/>
<path d="M132.09 32.3742C132.362 32.3742 132.584 32.1629 132.584 31.9023C132.584 31.6417 132.362 31.4304 132.09 31.4304C131.817 31.4304 131.596 31.6417 131.596 31.9023C131.596 32.1629 131.817 32.3742 132.09 32.3742Z" stroke="white" stroke-width="0.0368218" stroke-miterlimit="10"/>
<path d="M135.696 34.965C136.427 34.965 137.02 34.399 137.02 33.7008C137.02 33.0026 136.427 32.4365 135.696 32.4365C134.966 32.4365 134.373 33.0026 134.373 33.7008C134.373 34.399 134.966 34.965 135.696 34.965Z" stroke="white" stroke-width="0.0737087" stroke-miterlimit="10"/>
<path d="M135.694 35.1603C136.539 35.1603 137.223 34.5065 137.223 33.7001C137.223 32.8937 136.539 32.24 135.694 32.24C134.85 32.24 134.166 32.8937 134.166 33.7001C134.166 34.5065 134.85 35.1603 135.694 35.1603Z" stroke="white" stroke-width="0.0854839" stroke-miterlimit="10"/>
<path d="M135.693 34.4572C136.13 34.4572 136.485 34.1183 136.485 33.7004C136.485 33.2824 136.13 32.9436 135.693 32.9436C135.255 32.9436 134.9 33.2824 134.9 33.7004C134.9 34.1183 135.255 34.4572 135.693 34.4572Z" stroke="white" stroke-width="0.0737087" stroke-miterlimit="10"/>
<path d="M135.692 34.048C135.892 34.048 136.055 33.8925 136.055 33.7007C136.055 33.509 135.892 33.3535 135.692 33.3535C135.491 33.3535 135.328 33.509 135.328 33.7007C135.328 33.8925 135.491 34.048 135.692 34.048Z" stroke="white" stroke-width="0.0368218" stroke-miterlimit="10"/>
<path d="M135.696 31.3681C136.427 31.3681 137.02 30.8021 137.02 30.1039C137.02 29.4056 136.427 28.8396 135.696 28.8396C134.966 28.8396 134.373 29.4056 134.373 30.1039C134.373 30.8021 134.966 31.3681 135.696 31.3681Z" stroke="white" stroke-width="0.0737087" stroke-miterlimit="10"/>
<path d="M135.694 31.644C136.59 31.644 137.316 30.9504 137.316 30.0948C137.316 29.2392 136.59 28.5457 135.694 28.5457C134.798 28.5457 134.072 29.2392 134.072 30.0948C134.072 30.9504 134.798 31.644 135.694 31.644Z" stroke="white" stroke-width="0.0737087" stroke-miterlimit="10"/>
<path d="M135.696 30.994C136.21 30.994 136.628 30.5954 136.628 30.1037C136.628 29.612 136.21 29.2134 135.696 29.2134C135.181 29.2134 134.764 29.612 134.764 30.1037C134.764 30.5954 135.181 30.994 135.696 30.994Z" stroke="white" stroke-width="0.0861995" stroke-miterlimit="10"/>
<path d="M135.696 30.3706C135.85 30.3706 135.975 30.251 135.975 30.1035C135.975 29.956 135.85 29.8364 135.696 29.8364C135.541 29.8364 135.416 29.956 135.416 30.1035C135.416 30.251 135.541 30.3706 135.696 30.3706Z" stroke="white" stroke-width="0.0552978" stroke-miterlimit="10"/>
<path d="M132.088 29.5602C132.201 29.5602 132.293 29.4725 132.293 29.3643C132.293 29.2562 132.201 29.1685 132.088 29.1685C131.975 29.1685 131.883 29.2562 131.883 29.3643C131.883 29.4725 131.975 29.5602 132.088 29.5602Z" stroke="white" stroke-width="0.0737087" stroke-miterlimit="10"/>
<path d="M132.09 29.8366C132.362 29.8366 132.584 29.6253 132.584 29.3647C132.584 29.1041 132.362 28.8928 132.09 28.8928C131.817 28.8928 131.596 29.1041 131.596 29.3647C131.596 29.6253 131.817 29.8366 132.09 29.8366Z" stroke="white" stroke-width="0.0737087" stroke-miterlimit="10"/>
<path d="M132.086 30.0325C132.472 30.0325 132.785 29.7336 132.785 29.3648C132.785 28.996 132.472 28.697 132.086 28.697C131.7 28.697 131.387 28.996 131.387 29.3648C131.387 29.7336 131.7 30.0325 132.086 30.0325Z" stroke="white" stroke-width="0.0737087" stroke-miterlimit="10"/>
<path d="M132.089 35.036C132.439 35.036 132.723 34.765 132.723 34.4306C132.723 34.0963 132.439 33.8252 132.089 33.8252C131.739 33.8252 131.455 34.0963 131.455 34.4306C131.455 34.765 131.739 35.036 132.089 35.036Z" stroke="white" stroke-width="0.0552978" stroke-miterlimit="10"/>
<path d="M130.902 33.9497C130.979 33.9497 131.041 33.8899 131.041 33.8162C131.041 33.7424 130.979 33.6826 130.902 33.6826C130.824 33.6826 130.762 33.7424 130.762 33.8162C130.762 33.8899 130.824 33.9497 130.902 33.9497Z" fill="white"/>
<path d="M132.012 35.4723H135.786C136.756 35.4723 137.539 34.7244 137.539 33.7985V29.9968C137.539 29.0709 136.756 28.323 135.786 28.323H132.012C131.043 28.323 130.26 29.0709 130.26 29.9968V33.7985C130.251 34.7244 131.043 35.4723 132.012 35.4723Z" stroke="white" stroke-width="0.0737087" stroke-miterlimit="10"/>
<path d="M131.865 35.7573H135.928C136.972 35.7573 137.82 34.9471 137.82 33.95V29.8545C137.82 28.8573 136.972 28.0471 135.928 28.0471H131.865C130.821 28.0471 129.973 28.8573 129.973 29.8545V33.95C129.973 34.9471 130.821 35.7573 131.865 35.7573Z" stroke="white" stroke-width="0.0794337" stroke-miterlimit="10"/>
<path d="M132.085 33.1665C132.816 33.1665 133.409 32.6004 133.409 31.9022C133.409 31.204 132.816 30.6379 132.085 30.6379C131.354 30.6379 130.762 31.204 130.762 31.9022C130.762 32.6004 131.354 33.1665 132.085 33.1665Z" stroke="white" stroke-width="0.0737087" stroke-miterlimit="10"/>
</g>
<g clip-path="url(#clip8_797_5026)">
<path d="M133.934 103.894C133.309 103.894 132.797 104.375 132.797 104.98C132.797 105.586 133.3 106.075 133.934 106.075C134.568 106.075 135.08 105.595 135.08 104.98C135.071 104.375 134.558 103.894 133.934 103.894ZM133.934 105.915C133.393 105.915 132.955 105.497 132.955 104.98C132.955 104.464 133.403 104.045 133.934 104.045C134.484 104.045 134.912 104.473 134.912 104.98C134.912 105.497 134.484 105.915 133.934 105.915Z" fill="white"/>
<path d="M133.929 104.428C133.613 104.428 133.352 104.678 133.352 104.98C133.352 105.292 133.613 105.541 133.929 105.541C134.246 105.541 134.517 105.292 134.517 104.98C134.517 104.669 134.246 104.428 133.929 104.428ZM133.929 105.452C133.65 105.452 133.426 105.238 133.426 104.971C133.426 104.704 133.65 104.491 133.929 104.491C134.209 104.491 134.433 104.704 134.433 104.971C134.433 105.247 134.209 105.452 133.929 105.452Z" fill="white"/>
<path d="M133.933 105.274C134.102 105.274 134.24 105.143 134.24 104.98C134.24 104.818 134.102 104.687 133.933 104.687C133.763 104.687 133.625 104.818 133.625 104.98C133.625 105.143 133.763 105.274 133.933 105.274Z" fill="white"/>
<path d="M133.934 99.9763C133.309 99.9763 132.797 100.457 132.797 101.063C132.797 101.668 133.3 102.158 133.934 102.158C134.568 102.158 135.08 101.677 135.08 101.063C135.071 100.466 134.558 99.9763 133.934 99.9763ZM133.934 102.006C133.393 102.006 132.955 101.588 132.955 101.071C132.955 100.555 133.403 100.137 133.934 100.137C134.484 100.137 134.912 100.564 134.912 101.071C134.912 101.588 134.484 102.006 133.934 102.006Z" fill="white"/>
<path d="M133.929 100.51C133.613 100.51 133.352 100.76 133.352 101.062C133.352 101.374 133.613 101.623 133.929 101.623C134.246 101.623 134.517 101.374 134.517 101.062C134.517 100.76 134.246 100.51 133.929 100.51ZM133.929 101.543C133.65 101.543 133.426 101.33 133.426 101.062C133.426 100.795 133.65 100.582 133.929 100.582C134.209 100.582 134.433 100.795 134.433 101.062C134.433 101.33 134.209 101.543 133.929 101.543Z" fill="white"/>
<path d="M133.933 101.357C134.102 101.357 134.24 101.225 134.24 101.063C134.24 100.901 134.102 100.769 133.933 100.769C133.763 100.769 133.625 100.901 133.625 101.063C133.625 101.225 133.763 101.357 133.933 101.357Z" fill="white"/>
<path d="M131.903 101.917C131.278 101.917 130.766 102.398 130.766 103.004C130.766 103.609 131.269 104.099 131.903 104.099C132.536 104.099 133.049 103.618 133.049 103.004C133.049 102.398 132.536 101.917 131.903 101.917ZM131.903 103.939C131.362 103.939 130.924 103.52 130.924 103.004C130.924 102.487 131.371 102.069 131.903 102.069C132.453 102.069 132.881 102.496 132.881 103.004C132.891 103.52 132.453 103.939 131.903 103.939Z" fill="white"/>
<path d="M131.902 102.452C131.585 102.452 131.324 102.701 131.324 103.004C131.324 103.315 131.585 103.565 131.902 103.565C132.219 103.565 132.489 103.315 132.489 103.004C132.489 102.692 132.228 102.452 131.902 102.452ZM131.902 103.476C131.622 103.476 131.399 103.262 131.399 102.995C131.399 102.728 131.622 102.514 131.902 102.514C132.182 102.514 132.405 102.728 132.405 102.995C132.405 103.271 132.182 103.476 131.902 103.476Z" fill="white"/>
<path d="M131.903 103.298C132.073 103.298 132.211 103.166 132.211 103.004C132.211 102.842 132.073 102.71 131.903 102.71C131.733 102.71 131.596 102.842 131.596 103.004C131.596 103.166 131.733 103.298 131.903 103.298Z" fill="white"/>
<path d="M133.933 106.734C136.08 106.734 137.82 105.072 137.82 103.022C137.82 100.971 136.08 99.3091 133.933 99.3091C131.787 99.3091 130.047 100.971 130.047 103.022C130.047 105.072 131.787 106.734 133.933 106.734Z" stroke="white" stroke-width="0.273496" stroke-miterlimit="10"/>
<path d="M135.835 104.393C135.917 104.393 135.984 104.329 135.984 104.25C135.984 104.172 135.917 104.108 135.835 104.108C135.752 104.108 135.686 104.172 135.686 104.25C135.686 104.329 135.752 104.393 135.835 104.393Z" fill="white"/>
<path d="M136.337 103.093H135.293L135.395 102.915H136.402L136.337 103.093Z" fill="white"/>
<path d="M136.22 103.493H136.033L136.397 102.434H136.583L136.22 103.493Z" fill="white"/>
<path d="M135.667 103.493H135.48L135.844 102.434H136.03L135.667 103.493Z" fill="white"/>
</g>
<g clip-path="url(#clip9_797_5026)">
<path d="M25.3195 30.4777C26.0504 30.4777 26.6429 29.9117 26.6429 29.2135C26.6429 28.5152 26.0504 27.9492 25.3195 27.9492C24.5886 27.9492 23.9961 28.5152 23.9961 29.2135C23.9961 29.9117 24.5886 30.4777 25.3195 30.4777Z" stroke="white" stroke-width="0.0737087" stroke-miterlimit="10"/>
<path d="M25.3234 30.6734C26.1675 30.6734 26.8518 30.0197 26.8518 29.2133C26.8518 28.4069 26.1675 27.7532 25.3234 27.7532C24.4792 27.7532 23.7949 28.4069 23.7949 29.2133C23.7949 30.0197 24.4792 30.6734 25.3234 30.6734Z" stroke="white" stroke-width="0.0854839" stroke-miterlimit="10"/>
<path d="M25.3181 29.8811C25.7042 29.8811 26.0171 29.5822 26.0171 29.2134C26.0171 28.8446 25.7042 28.5457 25.3181 28.5457C24.9321 28.5457 24.6191 28.8446 24.6191 29.2134C24.6191 29.5822 24.9321 29.8811 25.3181 29.8811Z" fill="white"/>
<path d="M25.3195 34.1994C26.0504 34.1994 26.6429 33.6334 26.6429 32.9352C26.6429 32.2369 26.0504 31.6709 25.3195 31.6709C24.5886 31.6709 23.9961 32.2369 23.9961 32.9352C23.9961 33.6334 24.5886 34.1994 25.3195 34.1994Z" stroke="white" stroke-width="0.0737087" stroke-miterlimit="10"/>
<path d="M25.3234 34.3954C26.1675 34.3954 26.8518 33.7416 26.8518 32.9352C26.8518 32.1288 26.1675 31.4751 25.3234 31.4751C24.4792 31.4751 23.7949 32.1288 23.7949 32.9352C23.7949 33.7416 24.4792 34.3954 25.3234 34.3954Z" stroke="white" stroke-width="0.0854839" stroke-miterlimit="10"/>
<path d="M25.3181 33.6026C25.7042 33.6026 26.0171 33.3036 26.0171 32.9348C26.0171 32.566 25.7042 32.2671 25.3181 32.2671C24.9321 32.2671 24.6191 32.566 24.6191 32.9348C24.6191 33.3036 24.9321 33.6026 25.3181 33.6026Z" fill="white"/>
<path d="M30.0662 32.3739C30.272 32.3739 30.4389 32.2144 30.4389 32.0178C30.4389 31.8211 30.272 31.6616 30.0662 31.6616C29.8603 31.6616 29.6934 31.8211 29.6934 32.0178C29.6934 32.2144 29.8603 32.3739 30.0662 32.3739Z" fill="white"/>
<path d="M30.0662 33.4422C30.272 33.4422 30.4389 33.2828 30.4389 33.0861C30.4389 32.8894 30.272 32.73 30.0662 32.73C29.8603 32.73 29.6934 32.8894 29.6934 33.0861C29.6934 33.2828 29.8603 33.4422 30.0662 33.4422Z" fill="white"/>
<path d="M25.3195 37.9297C26.0504 37.9297 26.6429 37.3636 26.6429 36.6654C26.6429 35.9672 26.0504 35.4011 25.3195 35.4011C24.5886 35.4011 23.9961 35.9672 23.9961 36.6654C23.9961 37.3636 24.5886 37.9297 25.3195 37.9297Z" stroke="white" stroke-width="0.0737087" stroke-miterlimit="10"/>
<path d="M25.3234 38.1256C26.1675 38.1256 26.8518 37.4719 26.8518 36.6655C26.8518 35.859 26.1675 35.2053 25.3234 35.2053C24.4792 35.2053 23.7949 35.859 23.7949 36.6655C23.7949 37.4719 24.4792 38.1256 25.3234 38.1256Z" stroke="white" stroke-width="0.0854839" stroke-miterlimit="10"/>
<path d="M25.3181 37.3338C25.7042 37.3338 26.0171 37.0348 26.0171 36.666C26.0171 36.2973 25.7042 35.9983 25.3181 35.9983C24.9321 35.9983 24.6191 36.2973 24.6191 36.666C24.6191 37.0348 24.9321 37.3338 25.3181 37.3338Z" fill="white"/>
<path d="M25.3207 38.9C24.1557 38.9 23.2051 38.0007 23.2051 36.8789V28.9996C23.2051 27.8867 24.1464 26.9785 25.3207 26.9785C26.4856 26.9785 27.4362 27.8777 27.4362 28.9996V36.8789C27.4269 37.9918 26.4856 38.9 25.3207 38.9Z" stroke="white" stroke-width="0.162641" stroke-miterlimit="10"/>
<path d="M30.0668 33.932C29.666 33.932 29.3398 33.6204 29.3398 33.2376V31.911C29.3398 31.5282 29.666 31.2166 30.0668 31.2166C30.4675 31.2166 30.7937 31.5282 30.7937 31.911V33.2376C30.7937 33.6204 30.4675 33.932 30.0668 33.932Z" stroke="white" stroke-width="0.0975844" stroke-miterlimit="10"/>
</g>
<g clip-path="url(#clip10_797_5026)">
<path d="M25.0587 102.915C25.8462 102.915 26.4847 102.305 26.4847 101.552C26.4847 100.8 25.8462 100.19 25.0587 100.19C24.2712 100.19 23.6328 100.8 23.6328 101.552C23.6328 102.305 24.2712 102.915 25.0587 102.915Z" stroke="white" stroke-width="0.212083" stroke-miterlimit="10"/>
<path d="M25.0609 102.246C25.4624 102.246 25.7879 101.935 25.7879 101.552C25.7879 101.168 25.4624 100.857 25.0609 100.857C24.6594 100.857 24.334 101.168 24.334 101.552C24.334 101.935 24.6594 102.246 25.0609 102.246Z" fill="white"/>
<path d="M28.9737 101.606C29.4575 101.606 29.8498 101.231 29.8498 100.769C29.8498 100.307 29.4575 99.9319 28.9737 99.9319C28.4899 99.9319 28.0977 100.307 28.0977 100.769C28.0977 101.231 28.4899 101.606 28.9737 101.606Z" stroke="white" stroke-width="0.0519149" stroke-miterlimit="10"/>
<path d="M28.9752 101.499C29.3972 101.499 29.7394 101.172 29.7394 100.769C29.7394 100.365 29.3972 100.039 28.9752 100.039C28.5531 100.039 28.2109 100.365 28.2109 100.769C28.2109 101.172 28.5531 101.499 28.9752 101.499Z" fill="white"/>
<path d="M25.0627 104.731C25.3304 104.731 25.5474 104.524 25.5474 104.268C25.5474 104.012 25.3304 103.805 25.0627 103.805C24.7951 103.805 24.5781 104.012 24.5781 104.268C24.5781 104.524 24.7951 104.731 25.0627 104.731Z" fill="white"/>
<path d="M29.0124 104.357C29.2749 104.357 29.4877 104.154 29.4877 103.903C29.4877 103.652 29.2749 103.449 29.0124 103.449C28.7499 103.449 28.5371 103.652 28.5371 103.903C28.5371 104.154 28.7499 104.357 29.0124 104.357Z" fill="white"/>
<path d="M30.8954 100.395V103.235C30.8954 103.449 30.8022 103.662 30.6438 103.814L28.1461 106.2C28.0436 106.298 27.9131 106.351 27.764 106.351H23.8404C23.421 106.351 23.0762 106.022 23.0762 105.621V100.368C23.0762 99.9764 23.4024 99.6648 23.8124 99.6648H30.1312C30.5506 99.6648 30.8954 99.9942 30.8954 100.395Z" stroke="white" stroke-width="0.106042" stroke-miterlimit="10"/>
</g>
<path d="M73.2738 63.6848C73.3336 63.6338 73.3774 63.5835 73.4051 63.534C73.4328 63.4844 73.4479 63.4371 73.4502 63.3919C73.4534 63.346 73.4458 63.3021 73.4274 63.2603C73.4099 63.2177 73.3849 63.1778 73.3526 63.1407C73.3188 63.1019 73.2827 63.0723 73.2441 63.0519C73.2049 63.0307 73.1631 63.0203 73.1189 63.0206C73.074 63.02 73.0262 63.0313 72.9755 63.0545C72.9256 63.0769 72.8723 63.1123 72.8157 63.1606L72.4916 63.4371L72.9485 63.9623L73.2738 63.6848ZM71.8407 62.6888L72.2911 63.2066L72.5471 62.9883C72.6571 62.8944 72.7221 62.803 72.742 62.7141C72.7627 62.6245 72.7338 62.5347 72.6555 62.4447C72.5744 62.3514 72.491 62.3066 72.4055 62.3105C72.32 62.3144 72.223 62.3626 72.1146 62.4551L71.8407 62.6888ZM71.8904 62.1974C72.0036 62.1008 72.1102 62.0294 72.2102 61.983C72.3101 61.9366 72.4035 61.9122 72.4905 61.91C72.5782 61.9071 72.6596 61.9248 72.7345 61.963C72.8094 62.0012 72.8788 62.0571 72.9428 62.1306C72.9794 62.1727 73.0086 62.2183 73.0305 62.2673C73.0515 62.3155 73.0641 62.3674 73.068 62.4231C73.072 62.4772 73.0663 62.5345 73.051 62.5951C73.0364 62.655 73.0107 62.7173 72.9738 62.7818C73.2595 62.6345 73.494 62.6661 73.6772 62.8767C73.7433 62.9527 73.7904 63.0348 73.8185 63.123C73.8467 63.2113 73.8545 63.3017 73.842 63.3944C73.8288 63.4862 73.7947 63.5786 73.7395 63.6717C73.6844 63.7648 73.6065 63.8542 73.5061 63.9399L72.853 64.497L71.2948 62.7055L71.8904 62.1974ZM74.7862 61.8518C74.7601 61.8065 74.7291 61.7674 74.6933 61.7347C74.6579 61.7006 74.619 61.6752 74.5766 61.6584C74.5342 61.6417 74.4887 61.6354 74.44 61.6394C74.3918 61.642 74.3422 61.6571 74.2913 61.6846C74.1923 61.7382 74.1308 61.8094 74.1066 61.8982C74.0834 61.9864 74.0944 62.0877 74.1397 62.2021L74.7862 61.8518ZM74.2544 62.4172C74.3029 62.4888 74.3532 62.5466 74.4051 62.5904C74.4564 62.6332 74.5091 62.6636 74.5631 62.6815C74.6165 62.6984 74.6711 62.7036 74.7268 62.697C74.7828 62.689 74.8386 62.6699 74.8941 62.6398C74.9496 62.6098 74.9934 62.5774 75.0256 62.5426C75.0586 62.5073 75.0854 62.4736 75.1057 62.4415C75.127 62.4089 75.1449 62.3799 75.1595 62.3547C75.175 62.3289 75.1934 62.3103 75.2147 62.2988C75.2433 62.2832 75.2709 62.2826 75.2973 62.2968L75.4693 62.371C75.4575 62.437 75.4369 62.4983 75.4077 62.5551C75.378 62.6109 75.3426 62.6623 75.3017 62.7092C75.2612 62.7547 75.2163 62.7958 75.167 62.8324C75.1186 62.8686 75.0695 62.9002 75.0195 62.9272C74.9205 62.9808 74.819 63.0142 74.7148 63.0272C74.6101 63.0392 74.5075 63.0297 74.4071 62.9986C74.3061 62.9665 74.2098 62.912 74.1182 62.8351C74.0261 62.7573 73.9432 62.6545 73.8698 62.5269C73.8126 62.4276 73.7747 62.326 73.7561 62.222C73.7369 62.117 73.738 62.0166 73.7592 61.9208C73.7809 61.8235 73.8229 61.7331 73.8853 61.6497C73.9486 61.5658 74.0335 61.495 74.1399 61.4374C74.2296 61.3888 74.3208 61.3586 74.4135 61.3468C74.5063 61.335 74.5962 61.3427 74.6835 61.3699C74.7702 61.3961 74.8524 61.442 74.9303 61.5077C75.0086 61.572 75.0779 61.6566 75.1383 61.7615C75.1688 61.8145 75.184 61.8534 75.1837 61.8783C75.183 61.9023 75.1669 61.9228 75.1354 61.9398L74.2544 62.4172ZM75.321 60.0895L76.2465 62.3275L75.8798 62.4645L74.9543 60.2264L75.321 60.0895ZM76.2665 59.801L77.0003 62.1012L76.6218 62.2059L75.888 59.9057L76.2665 59.801ZM78.5926 60.2103L78.0511 62.4023C78.044 62.4313 78.0321 62.4539 78.0153 62.47C77.9998 62.4871 77.973 62.4979 77.9349 62.5026L77.6427 62.5381L77.8385 61.8446L76.9284 60.4128L77.273 60.3708C77.3037 60.3671 77.3288 60.3716 77.3482 60.3845C77.3686 60.3971 77.3847 60.4125 77.3963 60.4306L77.8833 61.2361C77.8997 61.2634 77.914 61.2909 77.9262 61.3187C77.9394 61.3463 77.9522 61.3746 77.9645 61.4034C77.9691 61.3725 77.9738 61.3421 77.9786 61.3123C77.9832 61.2814 77.9889 61.2509 77.9958 61.2208L78.1824 60.335C78.1873 60.3127 78.1982 60.2935 78.2149 60.2774C78.2328 60.2611 78.2539 60.2515 78.2782 60.2485L78.5926 60.2103ZM79.9718 61.5964C80.0523 61.6024 80.1201 61.5978 80.1754 61.5826C80.2307 61.5675 80.2749 61.5451 80.3081 61.5155C80.3423 61.4859 80.367 61.4503 80.3823 61.4087C80.3986 61.3671 80.4074 61.3223 80.4089 61.2743C80.4104 61.2242 80.4037 61.1787 80.3888 61.1381C80.3739 61.0963 80.3497 61.0603 80.3162 61.03C80.2828 60.9987 80.2389 60.9735 80.1846 60.9545C80.1314 60.9356 80.0668 60.9233 79.9906 60.9177L79.5545 60.8854L79.5341 61.564L79.9718 61.5964ZM79.5835 59.9187L79.5634 60.5877L79.9078 60.6132C80.0559 60.6242 80.1682 60.6058 80.2449 60.558C80.3227 60.5103 80.3633 60.4283 80.3668 60.312C80.3704 60.1914 80.3387 60.103 80.2716 60.0467C80.2045 59.9904 80.0979 59.9568 79.952 59.946L79.5835 59.9187ZM79.962 59.6131C80.1144 59.6244 80.2443 59.6484 80.3518 59.6853C80.4593 59.7221 80.5465 59.7697 80.6136 59.8282C80.6817 59.8867 80.7307 59.955 80.7606 60.0331C80.7906 60.1113 80.8041 60.1978 80.8012 60.2928C80.7996 60.3472 80.79 60.3989 80.7724 60.4479C80.7548 60.4958 80.7282 60.5403 80.6926 60.5815C80.658 60.6217 80.6139 60.6575 80.5603 60.6888C80.5078 60.7202 80.4452 60.7455 80.3726 60.7647C80.6901 60.8599 80.8448 61.0435 80.8366 61.3156C80.8337 61.4138 80.8122 61.5031 80.7721 61.5835C80.7321 61.664 80.6752 61.7319 80.6015 61.7874C80.5278 61.8419 80.4379 61.8823 80.3317 61.9086C80.2256 61.935 80.1049 61.9431 79.9698 61.9331L79.0911 61.8681L79.1607 59.5537L79.962 59.6131ZM82.8927 60.8918L82.4874 62.4686L82.2517 62.3988C82.2008 62.3837 82.1744 62.3511 82.1728 62.3009L82.1786 62.1671C82.0962 62.2132 82.0102 62.2451 81.9206 62.2626C81.8313 62.2791 81.733 62.2715 81.6258 62.2397C81.5384 62.2138 81.4646 62.1765 81.4043 62.1278C81.3454 62.0783 81.2999 62.0202 81.2678 61.9534C81.2357 61.8865 81.217 61.8132 81.2118 61.7333C81.2079 61.6528 81.2172 61.5685 81.2399 61.4803L81.4974 60.4783L81.8829 60.5926L81.6254 61.5946C81.6006 61.6909 81.6038 61.7723 81.6348 61.8389C81.6672 61.9047 81.7286 61.951 81.8191 61.9778C81.8857 61.9976 81.9518 62.0017 82.0175 61.9903C82.0834 61.9779 82.1489 61.9537 82.2141 61.9179L82.5072 60.7776L82.8927 60.8918ZM83.3294 62.9169C83.2015 62.8457 83.1216 62.7561 83.0897 62.6482C83.0593 62.5399 83.0767 62.424 83.142 62.3005L83.564 61.5022L83.4137 61.4186C83.3946 61.4079 83.3816 61.3929 83.3746 61.3733C83.3677 61.3538 83.3705 61.332 83.3833 61.3079L83.4555 61.1713L83.7116 61.2652L83.9922 60.9166C84.0068 60.9007 84.0235 60.8913 84.0423 60.8885C84.061 60.8858 84.0809 60.8902 84.1019 60.9019L84.2851 61.0039L84.0473 61.4539L84.6585 61.7942L84.9414 61.445C84.9559 61.429 84.9721 61.4194 84.99 61.4161C85.0087 61.4133 85.0291 61.4181 85.051 61.4303L85.2328 61.5315L84.9949 61.9815L85.3872 62.1998L85.2576 62.445L84.8653 62.2266L84.4558 63.0012C84.4322 63.0458 84.4253 63.087 84.4349 63.1248C84.4446 63.1626 84.469 63.1924 84.5081 63.2142C84.5291 63.2259 84.5485 63.2337 84.5662 63.2375C84.5844 63.2405 84.6002 63.2421 84.6137 63.2423C84.6281 63.2431 84.6408 63.2436 84.6518 63.2437C84.6634 63.243 84.6734 63.245 84.682 63.2497C84.6925 63.2556 84.6996 63.2631 84.7034 63.2724C84.7076 63.2808 84.7108 63.2922 84.7131 63.3067L84.7306 63.5328C84.657 63.5459 84.5811 63.5446 84.503 63.5287C84.4249 63.5129 84.3501 63.4851 84.2785 63.4452C84.1506 63.374 84.0707 63.2845 84.0388 63.1766C84.0074 63.0677 84.0244 62.9516 84.0897 62.828L84.5117 62.0298L83.9176 61.6991L83.5081 62.4736C83.4846 62.5182 83.4771 62.5591 83.4858 62.5964C83.4955 62.6343 83.5199 62.6641 83.559 62.6859C83.5809 62.6981 83.6003 62.7058 83.6171 62.7092C83.6353 62.7121 83.6511 62.7137 83.6646 62.714C83.679 62.7148 83.6917 62.7152 83.7027 62.7154C83.7143 62.7146 83.7243 62.7166 83.7329 62.7214C83.7434 62.7272 83.7505 62.7348 83.7543 62.7441C83.7585 62.7524 83.7617 62.7639 83.7639 62.7783L83.7815 63.0045C83.7079 63.0176 83.632 63.0162 83.5539 63.0004C83.4758 62.9845 83.401 62.9567 83.3294 62.9169ZM86.4578 63.018C86.552 63.0999 86.6249 63.1889 86.6764 63.2851C86.7288 63.382 86.7589 63.4811 86.7669 63.5824C86.7757 63.6845 86.7614 63.7873 86.7241 63.8908C86.6867 63.9944 86.6266 64.0941 86.5438 64.1901C86.4603 64.2868 86.3701 64.361 86.2732 64.4129C86.1763 64.4647 86.0766 64.4939 85.974 64.5004C85.8722 64.5077 85.7698 64.4923 85.6668 64.454C85.5646 64.4165 85.4664 64.3568 85.3722 64.2749C85.2771 64.1923 85.2034 64.1025 85.1511 64.0057C85.0987 63.9088 85.0685 63.8089 85.0603 63.7061C85.053 63.604 85.0677 63.5008 85.1042 63.3965C85.1415 63.2929 85.202 63.1928 85.2855 63.0961C85.3684 63.0001 85.4582 62.9263 85.5551 62.8744C85.6527 62.8233 85.7521 62.7945 85.8533 62.7881C85.9552 62.7823 86.0577 62.7985 86.1607 62.8367C86.2637 62.8749 86.3627 62.9354 86.4578 63.018ZM85.5673 64.049C85.6731 64.141 85.7806 64.1748 85.8899 64.1504C86.0001 64.1268 86.112 64.0492 86.2256 63.9176C86.3393 63.786 86.4003 63.6634 86.4086 63.5499C86.4178 63.4371 86.3695 63.3347 86.2637 63.2427C86.1562 63.1493 86.0463 63.1149 85.934 63.1394C85.8232 63.1638 85.7113 63.2414 85.5983 63.3722C85.4854 63.503 85.4247 63.6252 85.4164 63.7387C85.4095 63.8521 85.4599 63.9556 85.5673 64.049ZM87.5767 64.4661C87.6235 64.473 87.6692 64.4828 87.7139 64.4954C87.7601 64.5083 87.8035 64.5253 87.8442 64.5465C87.8865 64.5679 87.9266 64.5944 87.9647 64.6258C88.0037 64.6566 88.0408 64.6944 88.076 64.7391C88.1328 64.8113 88.1712 64.8845 88.191 64.9589C88.2117 65.0326 88.2149 65.1045 88.2007 65.1746C88.188 65.2449 88.1591 65.3125 88.114 65.3773C88.0704 65.4423 88.0128 65.5022 87.9412 65.557L87.1254 66.1811L86.8746 65.8626L87.6904 65.2385C87.7687 65.1786 87.8146 65.1139 87.828 65.0445C87.8422 64.9744 87.8195 64.9015 87.7599 64.8259C87.7166 64.7709 87.6639 64.7285 87.6019 64.6989C87.5398 64.6692 87.471 64.6488 87.3955 64.6377L86.4685 65.3469L86.2177 65.0285L87.4996 64.0478L87.6529 64.2425C87.6854 64.2838 87.688 64.3252 87.6606 64.3667L87.5767 64.4661Z" fill="white"/>
<path d="M79.5611 63.4329C75.4142 63.4329 72.0527 66.6052 72.0527 70.5188C72.0527 74.4325 75.4142 77.6048 79.5611 77.6048C83.708 77.6048 87.0694 74.4325 87.0694 70.5188C87.0694 66.6052 83.708 63.4329 79.5611 63.4329ZM75.8646 70.2027H73.5775C73.4504 69.4832 73.8316 68.5239 73.8316 68.5239C74.7673 68.3603 76.2112 69.4069 76.2112 69.4069L75.8646 70.2027ZM74.2937 67.957C75.9109 64.9591 78.4983 65.1553 78.4983 65.1553V67.1176C77.3548 67.7608 76.1996 68.7201 76.1996 68.7201L74.2937 67.957ZM79.5611 72.8518C78.198 72.8518 77.1006 71.8052 77.1006 70.5297C77.1006 69.2434 78.2096 68.2077 79.5611 68.2077C80.9241 68.2077 82.0215 69.2434 82.0215 70.5297C82.0215 71.8052 80.9241 72.8518 79.5611 72.8518ZM82.7261 73.9746C82.4027 73.9746 82.1254 73.7239 82.1254 73.4077C82.1254 73.1025 82.3911 72.8518 82.7261 72.8518C83.0611 72.8518 83.3268 73.1025 83.3268 73.4077C83.3152 73.7239 83.0495 73.9746 82.7261 73.9746Z" fill="white"/>
</g>
<path d="M7.3098 141.555L7.3233 136.399L5.53488 136.394L5.53737 135.443L10.2745 135.456L10.272 136.406L8.49232 136.402L8.47882 141.558L7.3098 141.555ZM12.2724 141.672C11.9176 141.671 11.6125 141.598 11.3569 141.452C11.1073 141.3 10.9159 141.081 10.7829 140.796C10.6499 140.505 10.5839 140.147 10.585 139.722L10.5917 137.166L11.7695 137.169L11.7631 139.603C11.7622 139.958 11.8342 140.226 11.9791 140.407C12.1298 140.587 12.3593 140.678 12.6676 140.679C12.8653 140.679 13.0399 140.636 13.1914 140.549C13.3428 140.457 13.4624 140.326 13.5501 140.158C13.6436 139.983 13.6907 139.771 13.6913 139.521L13.6975 137.174L14.8665 137.177L14.855 141.574L13.8255 141.572L13.7315 140.856C13.6028 141.106 13.4133 141.306 13.1628 141.457C12.9123 141.601 12.6155 141.673 12.2724 141.672ZM16.0084 141.577L16.0199 137.18L17.0668 137.183L17.1781 137.995C17.2833 137.803 17.4145 137.641 17.5719 137.507C17.7351 137.374 17.9186 137.27 18.1224 137.195C18.3319 137.12 18.5618 137.082 18.8119 137.083L18.8086 138.331L18.4073 138.33C18.2328 138.329 18.0699 138.349 17.9186 138.389C17.7731 138.43 17.6449 138.496 17.5342 138.589C17.4235 138.676 17.3388 138.798 17.2802 138.955C17.2217 139.112 17.1921 139.309 17.1915 139.548L17.1861 141.58L16.0084 141.577ZM19.5781 141.587L19.5896 137.19L20.6277 137.193L20.7131 137.908C20.8475 137.664 21.0371 137.467 21.2817 137.316C21.5322 137.166 21.829 137.091 22.1722 137.092C22.5386 137.093 22.8466 137.169 23.0963 137.321C23.346 137.473 23.5345 137.695 23.6616 137.986C23.7947 138.277 23.8606 138.635 23.8595 139.059L23.8528 141.598L22.6838 141.595L22.6902 139.17C22.6911 138.821 22.6162 138.553 22.4655 138.366C22.3205 138.18 22.094 138.086 21.7857 138.085C21.588 138.085 21.4105 138.131 21.2532 138.224C21.1017 138.316 20.9821 138.45 20.8944 138.624C20.8068 138.792 20.7626 138.999 20.762 139.243L20.7558 141.59L19.5781 141.587ZM27.5689 143.527L28.6396 141.122L28.3779 141.121L26.6258 137.208L27.9083 137.212L29.1571 140.05L30.2987 137.218L31.5462 137.221L28.8165 143.53L27.5689 143.527ZM33.9819 141.729C33.5631 141.728 33.1853 141.631 32.8485 141.438C32.5175 141.24 32.2536 140.969 32.0568 140.625C31.8657 140.275 31.7708 139.877 31.772 139.429C31.7732 138.969 31.8702 138.568 32.063 138.226C32.2617 137.877 32.5299 137.608 32.8678 137.417C33.2056 137.22 33.5839 137.122 34.0027 137.123C34.4272 137.124 34.805 137.224 35.136 137.422C35.4728 137.615 35.7368 137.886 35.9278 138.236C36.1246 138.58 36.2225 138.978 36.2213 139.432C36.2201 139.886 36.1202 140.287 35.9215 140.635C35.7287 140.978 35.4633 141.247 35.1255 141.444C34.7877 141.635 34.4065 141.73 33.9819 141.729ZM33.9846 140.708C34.1823 140.709 34.3569 140.663 34.5084 140.57C34.6656 140.478 34.7882 140.335 34.8759 140.144C34.9695 139.952 35.0166 139.714 35.0174 139.429C35.0181 139.144 34.9722 138.908 34.8796 138.722C34.7929 138.53 34.6711 138.387 34.5143 138.293C34.3634 138.194 34.1919 138.144 34 138.144C33.8139 138.143 33.6422 138.192 33.4849 138.291C33.3276 138.383 33.2022 138.525 33.1086 138.717C33.0209 138.903 32.9767 139.138 32.9759 139.423C32.9752 139.708 33.0182 139.947 33.1049 140.139C33.1975 140.331 33.3192 140.474 33.4702 140.568C33.627 140.661 33.7985 140.708 33.9846 140.708ZM38.8704 141.742C38.5156 141.741 38.2105 141.668 37.955 141.521C37.7053 141.37 37.5139 141.151 37.3809 140.866C37.2479 140.574 37.1819 140.217 37.183 139.792L37.1897 137.236L38.3675 137.239L38.3611 139.673C38.3602 140.028 38.4322 140.296 38.5771 140.476C38.7278 140.657 38.9573 140.748 39.2656 140.748C39.4633 140.749 39.6379 140.706 39.7894 140.619C39.9408 140.526 40.0604 140.396 40.1481 140.227C40.2416 140.053 40.2887 139.841 40.2893 139.591L40.2955 137.244L41.4645 137.247L41.453 141.644L40.4236 141.641L40.3295 140.926C40.2009 141.175 40.0113 141.376 39.7608 141.526C39.5104 141.671 39.2135 141.743 38.8704 141.742ZM42.6064 141.647L42.6179 137.25L43.6648 137.253L43.7761 138.065C43.8813 137.873 44.0126 137.71 44.1699 137.577C44.3331 137.444 44.5166 137.339 44.7204 137.264C44.9299 137.189 45.1598 137.152 45.4099 137.153L45.4066 138.4L45.0053 138.399C44.8308 138.399 44.6679 138.419 44.5166 138.459C44.3711 138.499 44.243 138.566 44.1322 138.659C44.0215 138.746 43.9368 138.868 43.8783 139.024C43.8197 139.181 43.7901 139.379 43.7895 139.617L43.7841 141.65L42.6064 141.647ZM48.4299 141.662L48.4425 136.873C48.4434 136.506 48.5053 136.216 48.628 136.001C48.7507 135.786 48.9256 135.629 49.1527 135.531C49.3856 135.433 49.6561 135.384 49.9644 135.385L50.5053 135.386L50.5026 136.39L50.1362 136.389C49.9501 136.388 49.8162 136.426 49.7346 136.501C49.6588 136.571 49.6207 136.696 49.6202 136.876L49.6077 141.665L48.4299 141.662ZM47.8369 138.25L47.8395 137.264L50.5701 137.271L50.5675 138.257L47.8369 138.25ZM51.4667 141.67L51.4782 137.273L52.5251 137.276L52.6364 138.088C52.7416 137.896 52.8729 137.734 53.0303 137.6C53.1935 137.467 53.3769 137.363 53.5807 137.288C53.7903 137.213 54.0201 137.175 54.2702 137.176L54.2669 138.424L53.8656 138.422C53.6911 138.422 53.5282 138.442 53.3769 138.482C53.2314 138.523 53.1033 138.589 52.9925 138.682C52.8818 138.769 52.7971 138.891 52.7386 139.048C52.68 139.205 52.6504 139.402 52.6498 139.641L52.6445 141.673L51.4667 141.67ZM55.0626 141.68L55.0741 137.283L56.2518 137.286L56.2403 141.683L55.0626 141.68ZM55.6689 136.682C55.4595 136.682 55.2852 136.62 55.1459 136.498C55.0125 136.369 54.946 136.209 54.9465 136.017C54.947 135.826 55.0143 135.669 55.1484 135.547C55.2884 135.419 55.463 135.356 55.6724 135.356C55.8876 135.357 56.0619 135.421 56.1953 135.55C56.3346 135.672 56.404 135.829 56.4035 136.021C56.403 136.213 56.3327 136.373 56.1928 136.501C56.0587 136.622 55.8841 136.683 55.6689 136.682ZM59.5413 141.796C59.0993 141.795 58.707 141.701 58.3643 141.514C58.0275 141.321 57.7636 141.056 57.5725 140.718C57.3873 140.374 57.2953 139.979 57.2965 139.531C57.2977 139.071 57.3918 138.667 57.5788 138.319C57.7717 137.964 58.037 137.689 58.3749 137.492C58.7127 137.289 59.1056 137.189 59.5534 137.19C59.9896 137.191 60.3703 137.288 60.6955 137.481C61.0207 137.673 61.273 137.933 61.4524 138.259C61.6319 138.585 61.7211 138.955 61.72 139.368C61.7198 139.426 61.7197 139.493 61.7195 139.568C61.7193 139.638 61.7133 139.711 61.7014 139.786L58.1333 139.777L58.1352 139.062L60.5343 139.068C60.5176 138.783 60.4164 138.559 60.2307 138.396C60.0508 138.232 59.8242 138.15 59.5509 138.149C59.3531 138.149 59.1698 138.195 59.0009 138.288C58.832 138.374 58.6979 138.511 58.5985 138.697C58.505 138.882 58.4578 139.118 58.4571 139.403L58.4564 139.656C58.4558 139.894 58.4989 140.104 58.5856 140.284C58.6782 140.459 58.8058 140.596 58.9684 140.695C59.131 140.789 59.3199 140.836 59.5351 140.836C59.7503 140.837 59.9278 140.791 60.0677 140.698C60.2133 140.606 60.3212 140.487 60.3914 140.341L61.5953 140.345C61.5132 140.618 61.3758 140.865 61.1833 141.085C60.9908 141.306 60.7548 141.479 60.4753 141.607C60.1958 141.734 59.8845 141.797 59.5413 141.796ZM62.6784 141.7L62.69 137.303L63.7281 137.305L63.8135 138.021C63.9479 137.777 64.1374 137.58 64.3821 137.429C64.6326 137.279 64.9294 137.204 65.2725 137.205C65.6389 137.206 65.947 137.282 66.1967 137.434C66.4464 137.586 66.6348 137.807 66.762 138.099C66.895 138.39 66.961 138.748 66.9598 139.172L66.9532 141.711L65.7842 141.708L65.7905 139.282C65.7914 138.934 65.7165 138.666 65.5658 138.479C65.4209 138.293 65.1943 138.199 64.8861 138.198C64.6883 138.198 64.5108 138.244 64.3535 138.337C64.2021 138.429 64.0825 138.563 63.9948 138.737C63.9071 138.905 63.863 139.112 63.8623 139.356L63.8562 141.703L62.6784 141.7ZM70.0167 141.824C69.6154 141.822 69.2551 141.723 68.9357 141.524C68.6221 141.326 68.3757 141.052 68.1963 140.702C68.0169 140.353 67.9278 139.96 67.9289 139.524C67.9301 139.076 68.0213 138.681 68.2025 138.338C68.3895 137.989 68.6432 137.717 68.9636 137.52C69.2899 137.317 69.6536 137.216 70.0549 137.217C70.369 137.218 70.6451 137.277 70.8832 137.394C71.1214 137.511 71.3129 137.677 71.4577 137.893L71.4642 135.441L72.6419 135.444L72.6254 141.726L71.5786 141.723L71.4493 141.121C71.3617 141.243 71.2509 141.359 71.1169 141.469C70.9886 141.579 70.8343 141.666 70.6538 141.729C70.4733 141.793 70.261 141.824 70.0167 141.824ZM70.2986 140.795C70.5312 140.795 70.7349 140.744 70.9096 140.639C71.0902 140.529 71.2302 140.379 71.3296 140.187C71.429 139.995 71.479 139.774 71.4796 139.524C71.4803 139.274 71.4314 139.053 71.3331 138.861C71.2347 138.669 71.0955 138.52 70.9155 138.415C70.7413 138.304 70.5379 138.248 70.3052 138.247C70.0842 138.247 69.8834 138.302 69.7028 138.412C69.5223 138.516 69.3794 138.664 69.2742 138.855C69.1748 139.047 69.1248 139.265 69.1242 139.509C69.1235 139.765 69.1724 139.989 69.2707 140.181C69.3749 140.374 69.5141 140.525 69.6883 140.636C69.8683 140.741 70.0717 140.794 70.2986 140.795ZM75.5763 141.838C75.175 141.837 74.8262 141.772 74.5299 141.643C74.2336 141.515 74.0014 141.337 73.8334 141.109C73.6653 140.882 73.57 140.626 73.5475 140.341L74.7165 140.344C74.7453 140.455 74.7945 140.557 74.864 140.65C74.9336 140.737 75.0264 140.807 75.1426 140.86C75.2588 140.912 75.3983 140.939 75.5612 140.939C75.7182 140.94 75.8462 140.92 75.9452 140.879C76.0442 140.833 76.117 140.772 76.1638 140.697C76.2163 140.621 76.2427 140.543 76.2429 140.461C76.2432 140.339 76.2086 140.246 76.1389 140.182C76.0693 140.112 75.9677 140.056 75.834 140.015C75.7004 139.974 75.5376 139.933 75.3458 139.892C75.1365 139.851 74.9302 139.801 74.7268 139.742C74.5292 139.678 74.352 139.599 74.1953 139.505C74.0385 139.412 73.9137 139.292 73.8211 139.146C73.7284 139.001 73.6823 138.82 73.6829 138.605C73.6836 138.343 73.754 138.111 73.8941 137.908C74.0342 137.699 74.2382 137.534 74.5061 137.412C74.7739 137.291 75.0969 137.231 75.4749 137.232C76.0042 137.233 76.4226 137.353 76.7302 137.592C77.0379 137.832 77.2202 138.161 77.2773 138.58L76.1693 138.577C76.1348 138.443 76.0565 138.338 75.9346 138.262C75.8185 138.18 75.6616 138.139 75.4638 138.139C75.2544 138.138 75.0944 138.176 74.9837 138.251C74.873 138.326 74.8175 138.425 74.8172 138.547C74.817 138.629 74.8517 138.701 74.9213 138.765C74.9967 138.83 75.1013 138.885 75.2349 138.932C75.3686 138.973 75.5313 139.014 75.7231 139.055C76.0603 139.126 76.3567 139.208 76.6124 139.302C76.868 139.39 77.0683 139.518 77.2133 139.688C77.3583 139.851 77.4304 140.089 77.4295 140.403C77.4288 140.683 77.3525 140.933 77.2007 141.153C77.049 141.368 76.8333 141.536 76.5538 141.657C76.2802 141.779 75.9543 141.839 75.5763 141.838ZM80.5019 141.746L80.5134 137.349L81.6912 137.352L81.6797 141.749L80.5019 141.746ZM81.1083 136.749C80.8989 136.748 80.7246 136.687 80.5853 136.564C80.4519 136.436 80.3854 136.276 80.3859 136.084C80.3864 135.892 80.4537 135.735 80.5878 135.613C80.7277 135.486 80.9023 135.422 81.1117 135.423C81.3269 135.423 81.5012 135.488 81.6347 135.616C81.7739 135.739 81.8433 135.896 81.8428 136.088C81.8423 136.28 81.7721 136.44 81.6322 136.567C81.4981 136.689 81.3234 136.75 81.1083 136.749ZM82.8698 141.752L82.8813 137.356L83.9194 137.358L84.0048 138.074C84.1392 137.83 84.3287 137.633 84.5734 137.482C84.8239 137.332 85.1207 137.257 85.4638 137.258C85.8303 137.259 86.1383 137.335 86.388 137.487C86.6377 137.639 86.8261 137.86 86.9533 138.151C87.0863 138.443 87.1523 138.8 87.1512 139.225L87.1445 141.764L85.9755 141.761L85.9819 139.335C85.9828 138.986 85.9079 138.719 85.7571 138.532C85.6122 138.346 85.3856 138.252 85.0774 138.251C84.8796 138.251 84.7021 138.297 84.5449 138.389C84.3934 138.482 84.2738 138.616 84.1861 138.79C84.0984 138.958 84.0543 139.165 84.0536 139.409L84.0475 141.756L82.8698 141.752ZM90.2345 141.772C89.9262 141.771 89.6559 141.724 89.4235 141.63C89.1969 141.531 89.02 141.37 88.8926 141.149C88.7652 140.922 88.7021 140.613 88.7031 140.224L88.708 138.357L87.9577 138.355L87.9603 137.369L88.7105 137.371L88.8445 136.176L89.8914 136.179L89.8883 137.374L91.0486 137.377L91.046 138.363L89.8857 138.36L89.8808 140.244C89.8802 140.442 89.9235 140.579 90.0106 140.655C90.0976 140.73 90.2458 140.769 90.4552 140.769L91.031 140.771L91.0283 141.774L90.2345 141.772ZM93.9935 141.886C93.5748 141.885 93.197 141.788 92.8602 141.595C92.5292 141.397 92.2653 141.126 92.0684 140.782C91.8774 140.433 91.7825 140.034 91.7837 139.586C91.7849 139.127 91.8819 138.726 92.0747 138.383C92.2734 138.034 92.5416 137.765 92.8794 137.574C93.2173 137.377 93.5956 137.279 94.0143 137.28C94.4389 137.281 94.8167 137.381 95.1477 137.58C95.4845 137.772 95.7484 138.044 95.9394 138.393C96.1363 138.737 96.2341 139.135 96.2329 139.589C96.2317 140.043 96.1318 140.444 95.9332 140.792C95.7403 141.135 95.475 141.405 95.1371 141.601C94.7993 141.792 94.4181 141.887 93.9935 141.886ZM93.9962 140.866C94.194 140.866 94.3686 140.82 94.52 140.727C94.6773 140.635 94.7998 140.493 94.8876 140.301C94.9811 140.109 95.0283 139.871 95.029 139.586C95.0298 139.301 94.9838 139.065 94.8913 138.879C94.8045 138.687 94.6828 138.544 94.526 138.45C94.375 138.351 94.2036 138.301 94.0117 138.301C93.8255 138.3 93.6538 138.349 93.4966 138.448C93.3393 138.54 93.2139 138.683 93.1203 138.874C93.0326 139.06 92.9883 139.296 92.9876 139.581C92.9868 139.866 93.0298 140.104 93.1166 140.296C93.2091 140.488 93.3309 140.631 93.4819 140.725C93.6387 140.818 93.8101 140.865 93.9962 140.866ZM101.424 141.906C100.982 141.905 100.589 141.805 100.247 141.606C99.9042 141.407 99.6374 141.136 99.4464 140.793C99.2553 140.449 99.1604 140.056 99.1616 139.614C99.1627 139.16 99.2597 138.762 99.4526 138.42C99.6454 138.071 99.9137 137.799 100.257 137.602C100.601 137.399 100.994 137.298 101.436 137.299C102 137.301 102.474 137.451 102.857 137.748C103.24 138.046 103.483 138.454 103.586 138.971L102.339 138.968C102.287 138.764 102.177 138.604 102.009 138.487C101.846 138.371 101.651 138.312 101.424 138.311C101.221 138.311 101.038 138.363 100.874 138.467C100.717 138.566 100.592 138.713 100.498 138.911C100.41 139.103 100.366 139.332 100.366 139.6C100.365 139.803 100.391 139.987 100.443 140.15C100.495 140.307 100.567 140.444 100.66 140.56C100.752 140.671 100.863 140.756 100.99 140.814C101.124 140.873 101.266 140.902 101.418 140.902C101.569 140.903 101.706 140.877 101.828 140.825C101.956 140.773 102.064 140.701 102.151 140.608C102.239 140.509 102.3 140.39 102.335 140.251L103.583 140.254C103.477 140.76 103.229 141.163 102.838 141.465C102.454 141.76 101.982 141.907 101.424 141.906ZM106.077 141.918C105.711 141.917 105.409 141.858 105.171 141.741C104.932 141.618 104.755 141.458 104.64 141.26C104.53 141.056 104.475 140.832 104.476 140.588C104.476 140.32 104.544 140.085 104.678 139.882C104.818 139.678 105.025 139.519 105.299 139.403C105.578 139.288 105.927 139.231 106.346 139.232L107.437 139.234C107.437 139.019 107.409 138.842 107.351 138.702C107.293 138.557 107.203 138.449 107.081 138.379C106.959 138.308 106.796 138.273 106.593 138.273C106.372 138.272 106.183 138.321 106.025 138.419C105.874 138.512 105.781 138.657 105.745 138.855L104.602 138.852C104.632 138.538 104.735 138.268 104.91 138.041C105.091 137.809 105.327 137.63 105.618 137.502C105.915 137.375 106.244 137.312 106.604 137.313C107.017 137.314 107.375 137.385 107.677 137.525C107.979 137.666 108.211 137.867 108.373 138.129C108.535 138.391 108.616 138.714 108.615 139.098L108.608 141.82L107.613 141.817L107.484 141.145C107.42 141.261 107.344 141.366 107.256 141.459C107.169 141.551 107.067 141.633 106.95 141.702C106.834 141.772 106.703 141.824 106.557 141.858C106.412 141.898 106.252 141.918 106.077 141.918ZM106.359 141.011C106.51 141.012 106.644 140.986 106.76 140.934C106.883 140.876 106.988 140.801 107.075 140.708C107.163 140.609 107.23 140.499 107.277 140.377C107.329 140.249 107.365 140.113 107.382 139.967L107.382 139.958L106.484 139.956C106.304 139.956 106.155 139.979 106.039 140.025C105.928 140.065 105.847 140.126 105.794 140.207C105.741 140.289 105.715 140.382 105.715 140.486C105.714 140.603 105.74 140.699 105.792 140.774C105.845 140.85 105.92 140.908 106.019 140.949C106.118 140.99 106.231 141.011 106.359 141.011ZM109.706 141.823L109.718 137.426L110.756 137.429L110.85 138.013C110.991 137.804 111.174 137.639 111.401 137.518C111.634 137.39 111.899 137.327 112.196 137.328C112.417 137.328 112.614 137.358 112.789 137.416C112.963 137.475 113.117 137.56 113.25 137.671C113.39 137.782 113.503 137.921 113.59 138.09C113.753 137.852 113.966 137.667 114.228 137.534C114.49 137.401 114.775 137.334 115.083 137.335C115.467 137.336 115.787 137.416 116.042 137.573C116.298 137.725 116.489 137.947 116.616 138.238C116.749 138.529 116.815 138.887 116.814 139.311L116.808 141.841L115.639 141.838L115.645 139.413C115.646 139.064 115.577 138.796 115.438 138.61C115.304 138.423 115.095 138.33 114.81 138.329C114.624 138.329 114.458 138.375 114.313 138.467C114.167 138.56 114.053 138.693 113.971 138.868C113.895 139.042 113.857 139.251 113.856 139.496L113.85 141.834L112.672 141.831L112.679 139.405C112.68 139.056 112.611 138.789 112.472 138.602C112.332 138.416 112.118 138.322 111.827 138.321C111.646 138.321 111.483 138.367 111.338 138.46C111.198 138.552 111.087 138.686 111.005 138.86C110.929 139.034 110.891 139.244 110.89 139.488L110.884 141.826L109.706 141.823ZM120.03 141.954C119.588 141.953 119.196 141.859 118.853 141.672C118.516 141.479 118.252 141.214 118.061 140.876C117.876 140.533 117.784 140.137 117.785 139.689C117.786 139.23 117.881 138.826 118.068 138.477C118.26 138.123 118.526 137.847 118.864 137.65C119.201 137.448 119.594 137.347 120.042 137.348C120.478 137.349 120.859 137.446 121.184 137.639C121.509 137.832 121.762 138.091 121.941 138.418C122.121 138.744 122.21 139.113 122.209 139.526C122.209 139.584 122.208 139.651 122.208 139.727C122.208 139.797 122.202 139.869 122.19 139.945L118.622 139.936L118.624 139.22L121.023 139.226C121.006 138.941 120.905 138.717 120.719 138.554C120.54 138.391 120.313 138.309 120.04 138.308C119.842 138.307 119.659 138.353 119.49 138.446C119.321 138.533 119.187 138.669 119.087 138.855C118.994 139.041 118.947 139.276 118.946 139.561L118.945 139.814C118.945 140.053 118.988 140.262 119.074 140.443C119.167 140.617 119.295 140.754 119.457 140.854C119.62 140.947 119.809 140.994 120.024 140.995C120.239 140.995 120.417 140.949 120.556 140.857C120.702 140.764 120.81 140.645 120.88 140.5L122.084 140.503C122.002 140.776 121.865 141.023 121.672 141.243C121.48 141.464 121.244 141.638 120.964 141.765C120.685 141.892 120.373 141.955 120.03 141.954ZM123.167 141.858L123.179 137.461L124.226 137.464L124.337 138.275C124.442 138.084 124.573 137.921 124.731 137.788C124.894 137.655 125.077 137.55 125.281 137.475C125.491 137.4 125.721 137.363 125.971 137.364L125.967 138.611L125.566 138.61C125.392 138.61 125.229 138.63 125.077 138.67C124.932 138.71 124.804 138.777 124.693 138.87C124.582 138.957 124.498 139.079 124.439 139.235C124.38 139.392 124.351 139.59 124.35 139.828L124.345 141.861L123.167 141.858ZM128.22 141.976C127.853 141.975 127.551 141.916 127.313 141.799C127.075 141.676 126.898 141.516 126.782 141.318C126.672 141.114 126.617 140.89 126.618 140.646C126.619 140.378 126.686 140.143 126.82 139.94C126.961 139.736 127.167 139.577 127.441 139.461C127.721 139.346 128.07 139.289 128.488 139.29L129.579 139.292C129.58 139.077 129.551 138.9 129.493 138.76C129.435 138.615 129.345 138.507 129.223 138.437C129.102 138.366 128.939 138.331 128.735 138.331C128.514 138.33 128.325 138.379 128.168 138.477C128.016 138.57 127.923 138.715 127.887 138.913L126.745 138.91C126.775 138.596 126.877 138.326 127.052 138.099C127.233 137.867 127.469 137.688 127.76 137.56C128.057 137.433 128.386 137.37 128.746 137.371C129.159 137.372 129.517 137.443 129.819 137.583C130.121 137.724 130.353 137.925 130.515 138.187C130.677 138.449 130.758 138.772 130.757 139.156L130.75 141.878L129.755 141.875L129.626 141.203C129.562 141.319 129.486 141.424 129.399 141.517C129.311 141.609 129.209 141.691 129.093 141.76C128.976 141.83 128.845 141.882 128.7 141.916C128.554 141.956 128.394 141.976 128.22 141.976ZM128.501 141.069C128.652 141.07 128.786 141.044 128.903 140.992C129.025 140.934 129.13 140.859 129.217 140.766C129.305 140.667 129.372 140.557 129.419 140.435C129.472 140.307 129.507 140.171 129.525 140.025L129.525 140.016L128.626 140.014C128.446 140.014 128.297 140.036 128.181 140.083C128.07 140.123 127.989 140.184 127.936 140.265C127.884 140.347 127.857 140.44 127.857 140.544C127.857 140.661 127.883 140.757 127.935 140.832C127.987 140.908 128.062 140.966 128.161 141.007C128.26 141.048 128.373 141.069 128.501 141.069ZM136.03 141.996C135.588 141.995 135.196 141.895 134.853 141.697C134.511 141.498 134.244 141.227 134.053 140.883C133.862 140.54 133.767 140.147 133.768 139.705C133.769 139.251 133.866 138.853 134.059 138.51C134.252 138.162 134.52 137.889 134.864 137.692C135.207 137.49 135.6 137.389 136.042 137.39C136.606 137.392 137.08 137.541 137.463 137.839C137.846 138.136 138.089 138.544 138.193 139.062L136.945 139.059C136.893 138.855 136.783 138.695 136.615 138.578C136.452 138.461 136.258 138.403 136.031 138.402C135.827 138.402 135.644 138.453 135.481 138.558C135.324 138.656 135.198 138.804 135.105 139.002C135.017 139.193 134.973 139.423 134.972 139.69C134.971 139.894 134.997 140.077 135.049 140.24C135.101 140.397 135.173 140.534 135.266 140.651C135.359 140.762 135.469 140.846 135.597 140.905C135.73 140.963 135.873 140.993 136.024 140.993C136.175 140.994 136.312 140.968 136.434 140.916C136.562 140.864 136.67 140.791 136.758 140.698C136.845 140.6 136.907 140.481 136.942 140.341L138.189 140.344C138.083 140.85 137.835 141.254 137.445 141.555C137.06 141.851 136.589 141.998 136.03 141.996ZM139.201 141.9L139.212 137.503L140.259 137.506L140.371 138.317C140.476 138.126 140.607 137.963 140.765 137.83C140.928 137.697 141.111 137.592 141.315 137.517C141.525 137.442 141.754 137.405 142.004 137.406L142.001 138.653L141.6 138.652C141.425 138.652 141.262 138.672 141.111 138.712C140.966 138.752 140.838 138.819 140.727 138.912C140.616 138.999 140.531 139.121 140.473 139.277C140.414 139.434 140.385 139.632 140.384 139.87L140.379 141.903L139.201 141.9ZM144.813 142.019C144.371 142.018 143.979 141.924 143.636 141.737C143.3 141.544 143.036 141.279 142.845 140.941C142.659 140.598 142.567 140.202 142.569 139.754C142.57 139.295 142.664 138.891 142.851 138.542C143.044 138.188 143.309 137.912 143.647 137.715C143.985 137.513 144.378 137.412 144.825 137.413C145.262 137.414 145.642 137.511 145.968 137.704C146.293 137.897 146.545 138.156 146.725 138.482C146.904 138.809 146.993 139.178 146.992 139.591C146.992 139.649 146.992 139.716 146.992 139.792C146.991 139.862 146.985 139.934 146.974 140.01L143.405 140L143.407 139.285L145.806 139.291C145.79 139.006 145.688 138.782 145.503 138.619C145.323 138.455 145.096 138.373 144.823 138.373C144.625 138.372 144.442 138.418 144.273 138.511C144.104 138.598 143.97 138.734 143.871 138.92C143.777 139.106 143.73 139.341 143.729 139.626L143.729 139.879C143.728 140.118 143.771 140.327 143.858 140.508C143.95 140.682 144.078 140.819 144.241 140.919C144.403 141.012 144.592 141.059 144.807 141.06C145.022 141.06 145.2 141.014 145.34 140.922C145.485 140.829 145.593 140.71 145.663 140.565L146.867 140.568C146.785 140.841 146.648 141.088 146.455 141.308C146.263 141.529 146.027 141.703 145.747 141.83C145.468 141.957 145.157 142.02 144.813 142.019ZM148.644 141.925L147.364 137.524L148.524 137.527L149.37 141.098L149.152 141.089L150.138 137.532L151.447 137.535L152.415 141.097L152.188 141.105L153.061 137.539L154.221 137.542L152.919 141.936L151.697 141.933L150.669 138.266L150.913 138.267L149.865 141.928L148.644 141.925Z" fill="white"/>
<defs>
<clipPath id="clip0_797_5026">
<rect width="128.467" height="105.674" fill="white" transform="translate(15.4238 15.1462)"/>
</clipPath>
<clipPath id="clip1_797_5026">
<rect width="19.359" height="18.7256" fill="white" transform="translate(32.959 78.3928)"/>
</clipPath>
<clipPath id="clip2_797_5026">
<rect width="19.3591" height="18.6914" fill="white" transform="translate(32.959 36.6567)"/>
</clipPath>
<clipPath id="clip3_797_5026">
<rect width="19.3591" height="18.6913" fill="white" transform="translate(108.518 78.436)"/>
</clipPath>
<clipPath id="clip4_797_5026">
<rect width="19.3591" height="18.6913" fill="white" transform="translate(108.518 36.6475)"/>
</clipPath>
<clipPath id="clip5_797_5026">
<rect width="19.5169" height="31.227" fill="white" transform="matrix(1 0 0 -1 55.7598 86.7078)"/>
</clipPath>
<clipPath id="clip6_797_5026">
<rect width="76.9943" height="98.2349" fill="white" transform="translate(67.4668 18.3989)"/>
</clipPath>
<clipPath id="clip7_797_5026">
<rect width="7.84722" height="7.71022" fill="white" transform="translate(129.973 28.0471)"/>
</clipPath>
<clipPath id="clip8_797_5026">
<rect width="7.77267" height="7.42532" fill="white" transform="translate(130.047 99.3091)"/>
</clipPath>
<clipPath id="clip9_797_5026">
<rect width="7.58737" height="11.9215" fill="white" transform="translate(23.2051 26.9785)"/>
</clipPath>
<clipPath id="clip10_797_5026">
<rect width="7.81927" height="6.68634" fill="white" transform="translate(23.0762 99.6648)"/>
</clipPath>
</defs>
</svg>
